<svg width="120" height="120" viewBox="0 0 120 120" fill="none" xmlns="http://www.w3.org/2000/svg">
<path d="M56.5 23H53C52.4477 23 52 22.5523 52 22V17.5C52 16.9477 52.4477 16.5 53 16.5H67C67.5523 16.5 68 16.9477 68 17.5V22C68 22.5523 67.5523 23 67 23H63.5M56.5 23V29M56.5 23H63.5M63.5 23V29" stroke="black" stroke-width="1.5"/>
<path d="M89.1641 35.5996L88.3537 34.7454C87.9736 34.3448 87.9902 33.7118 88.3908 33.3317L91.1523 30.7117C91.553 30.3316 92.1859 30.3482 92.566 30.7489L97.6839 36.143C98.064 36.5437 98.0474 37.1766 97.6467 37.5568L94.8853 40.1768C94.4846 40.5569 93.8517 40.5403 93.4715 40.1396L92.6611 39.2854M89.1641 35.5996L85.4783 39.0966M89.1641 35.5996L92.6611 39.2854M92.6611 39.2854L88.9753 42.7824" stroke="black" stroke-width="1.5"/>
<path d="M30.1877 35.5996L30.9981 34.7454C31.3782 34.3448 31.3616 33.7118 30.961 33.3317L28.1995 30.7117C27.7989 30.3316 27.1659 30.3482 26.7858 30.7489L21.6679 36.143C21.2878 36.5437 21.3044 37.1766 21.7051 37.5568L24.4665 40.1768C24.8672 40.5569 25.5001 40.5403 25.8803 40.1396L26.6907 39.2854M30.1877 35.5996L33.8735 39.0966M30.1877 35.5996L26.6907 39.2854M26.6907 39.2854L30.3765 42.7824" stroke="black" stroke-width="1.5"/>
<path d="M60 29C80.4345 29 97 45.5655 97 66C97 86.4345 80.4345 103 60 103C39.5655 103 23 86.4345 23 66C23 45.5655 39.5655 29 60 29Z" stroke="black" stroke-width="1.5"/>
<path d="M60 33C78.2254 33 93 47.7746 93 66C93 84.2254 78.2254 99 60 99C41.7746 99 27 84.2254 27 66C27 47.7746 41.7746 33 60 33Z" stroke="black" stroke-width="1.5"/>
</svg>
