<svg width="120" height="120" viewBox="0 0 120 120" fill="none" xmlns="http://www.w3.org/2000/svg">
<path d="M55.1875 7.81818H49V1H71V7.81818H64.8125M55.1875 7.81818V16M55.1875 7.81818H64.8125M64.8125 7.81818V16" stroke="black" stroke-width="1.5"/>
<path d="M77.2216 13.8057L76.2158 13.3982C75.7039 13.1908 75.4571 12.6078 75.6644 12.0959L77.0015 8.79584C77.2089 8.28397 77.792 8.03714 78.3038 8.24453L84.825 10.8866C85.3368 11.094 85.5837 11.6771 85.3763 12.189L84.0392 15.489C83.8318 16.0009 83.2487 16.2477 82.7369 16.0403L81.7311 15.6328M77.2216 13.8057L75.3945 18.3152M77.2216 13.8057L81.7311 15.6328M81.7311 15.6328L79.904 20.1423" stroke="black" stroke-width="1.5"/>
<path d="M9 69V65C9 37.938 30.938 16 58 16H62C89.062 16 111 37.938 111 65V69C111 96.062 89.062 118 62 118H58C30.938 118 9 96.062 9 69Z" stroke="black" stroke-width="1.5"/>
<path d="M60 22C84.8528 22 105 42.1472 105 67C105 91.8528 84.8528 112 60 112C35.1472 112 15 91.8528 15 67C15 42.1472 35.1472 22 60 22Z" stroke="black" stroke-width="1.5"/>
</svg>
